<?xml version="1.0" encoding="utf-8"?>
<!-- Generator: Adobe Illustrator 16.0.0, SVG Export Plug-In . SVG Version: 6.00 Build 0)  -->
<!DOCTYPE svg PUBLIC "-//W3C//DTD SVG 1.1//EN" "http://www.w3.org/Graphics/SVG/1.1/DTD/svg11.dtd">
<svg version="1.1" id="Capa_1" xmlns="http://www.w3.org/2000/svg" xmlns:xlink="http://www.w3.org/1999/xlink" x="0px" y="0px"
	 width="250px" height="250px" viewBox="0 0 250 250" enable-background="new 0 0 250 250" xml:space="preserve">
<g display="none">
	<path display="inline" fill="#FFFFFF" stroke="#CCCCCC" stroke-miterlimit="10" d="M244.5,16c0-6.627-5.373-12-12-12h-216
		c-6.627,0-12,5.373-12,12v211c0,6.627,5.373,12,12,12h179.578l48.422-59.369V16z"/>
	<g display="inline">
		<g>
			<rect x="8" y="25.5" opacity="0.2" fill="#E6E6E6" width="48" height="40"/>
			<rect x="8" y="76.5" opacity="0.2" fill="#E6E6E6" width="48" height="41"/>
			<rect x="8" y="131.5" opacity="0.2" fill="#E6E6E6" width="48" height="41"/>
			<rect x="8" y="179.5" opacity="0.2" fill="#E6E6E6" width="48" height="41"/>
		</g>
		<g>
			<rect x="68" y="4.5" opacity="0.2" fill="#E6E6E6" width="48" height="41"/>
			<rect x="68" y="56.5" opacity="0.2" fill="#E6E6E6" width="48" height="41"/>
			<rect x="68" y="111.5" opacity="0.2" fill="#E6E6E6" width="48" height="40"/>
			<rect x="68" y="159.5" opacity="0.2" fill="#E6E6E6" width="48" height="40"/>
		</g>
		<g>
			<rect x="136" y="29.5" opacity="0.2" fill="#E6E6E6" width="48" height="40"/>
			<rect x="136" y="81.5" opacity="0.2" fill="#E6E6E6" width="48" height="40"/>
			<rect x="136" y="135.5" opacity="0.2" fill="#E6E6E6" width="48" height="40"/>
			<rect x="136" y="184.5" opacity="0.2" fill="#E6E6E6" width="48" height="40"/>
		</g>
		<g>
			<rect x="192" y="13.5" opacity="0.2" fill="#E6E6E6" width="48" height="40"/>
			<rect x="192" y="65.5" opacity="0.2" fill="#E6E6E6" width="48" height="40"/>
			<rect x="192" y="120.5" opacity="0.2" fill="#E6E6E6" width="48" height="40"/>
			<rect x="192" y="168.5" opacity="0.2" fill="#E6E6E6" width="48" height="15"/>
		</g>
	</g>
</g>
<text transform="matrix(1.2458 0 0 1 5 200.5107)" fill="#CCCCCC" font-family="'SquareFont'" font-size="234.9608">Ic</text>
<text transform="matrix(1.2982 0 0 1 92.0005 199.5)" fill="#FFFFFF" font-family="'TingTong'" font-size="30.4923">NOTE</text>
<text transform="matrix(0 -1.3837 1 0 64.9878 180.166)" display="none" fill="#FFFFFF" font-family="'SquareFont'" font-size="21">installer</text>
<g display="none">
	<path display="inline" fill="#E6E6E6" d="M196.286,239.733c-2.524-10.94-5.048-21.366-7.572-31.275
		c-1.378-5.337,2.761-10.978,9.243-13.036c15.444-4.707,30.89-10.286,46.334-16.736C228.289,204.51,212.288,224.858,196.286,239.733
		z"/>
	<path display="inline" fill="none" stroke="#CCCCCC" stroke-miterlimit="10" d="M196.286,239.733
		c-2.524-10.94-5.048-21.366-7.572-31.275c-1.378-5.337,2.761-10.978,9.243-13.036c15.444-4.707,30.89-10.286,46.334-16.736
		C228.289,204.51,212.288,224.858,196.286,239.733z"/>
</g>
</svg>
